<svg width="48" height="48" viewBox="0 0 36 36" xmlns="http://www.w3.org/2000/svg">
  <rect width="36" height="36" rx="4" fill="#0071cd"/>
  <path
     style="fill:#ffffff;stroke-width:1.41785"
     d="m 28.4284,25.834109 c -0.750791,-0.09316 -0.760376,0.302827 0.105852,-4.373907 0.711364,-3.840614 0.711364,-3.840614 1.479161,-3.777562 1.179836,0.09688 1.180128,0.0992 0.496526,3.916963 -0.811056,4.529578 -0.771414,4.378841 -1.142032,4.342709 -0.173413,-0.0169 -0.596194,-0.0656 -0.939514,-0.10821 z m -6.440475,-1.02691 c -3.311645,-0.798665 -4.64884,-4.606037 -2.571895,-7.322898 2.312692,-3.025239 7.283055,-1.846887 7.84953,1.860932 0.05025,0.328994 -0.03576,0.37452 -0.613778,0.324847 -1.05947,-0.09105 -1.231626,-0.184224 -1.512386,-0.818502 -1.017715,-2.299175 -4.224661,-1.496624 -4.727371,1.183043 -0.437035,2.329599 2.418901,4.017329 4.093607,2.419136 0.478183,-0.456336 0.576472,-0.476637 1.425901,-0.294494 1.078819,0.231331 1.084449,0.252303 0.317539,1.1827 -1.027569,1.246617 -2.73425,1.833476 -4.261147,1.465236 z m -7.292294,-1.463413 c -0.407076,-0.106384 -0.414904,-0.378925 -0.06319,-2.199876 0.150106,-0.777166 0.4658,-2.438521 0.701542,-3.6919 0.428622,-2.278874 0.428622,-2.278874 1.296453,-2.159924 1.131477,0.155086 1.083829,-0.01957 0.6436,2.359192 -0.211676,1.143782 -0.537736,2.922295 -0.724579,3.952253 -0.365846,2.016689 -0.459517,2.104625 -1.853818,1.740255 z M 7.1570134,21.96545 C 6.0779854,21.474023 5.027837,20.236881 4.6716773,19.03756 4.3894402,18.087164 4.3990783,17.888066 4.8512113,15.328832 5.7903605,10.012913 5.8095139,9.9342168 6.1599701,9.9514858 c 1.7063864,0.08408 1.6979949,0.068995 1.2577094,2.2613382 -0.2645566,1.317325 -0.2829065,1.293615 0.8079501,1.043992 1.9330044,-0.442336 4.4137724,0.964012 5.0633484,2.870413 1.33255,3.91082 -2.45209,7.514163 -6.1319646,5.838221 z m 3.1887136,-1.806246 c 2.29048,-1.530141 1.400472,-5.132521 -1.2680459,-5.132521 -1.5583392,0 -2.5937145,1.166877 -2.5921828,2.921412 0.00182,2.088405 2.1780081,3.334906 3.8602287,2.211109 z m 19.412604,-4.041952 c -0.79025,-0.841183 -0.251508,-2.052337 0.912912,-2.052337 0.563167,0 1.358407,0.73086 1.358407,1.248432 0,1.047927 -1.532505,1.590338 -2.271319,0.803905 z M 16.213916,13.713674 c -0.699497,-0.772937 -0.104156,-2.145626 0.930566,-2.145626 1.051726,0 1.663408,1.485583 0.897194,2.178998 -0.466202,0.421906 -1.431692,0.404278 -1.82776,-0.03338 z"/>
</svg>
